<svg width="193" height="57" viewBox="0 0 193 57" fill="none" xmlns="http://www.w3.org/2000/svg">
<rect width="192.375" height="57" rx="5" fill="black"/>
<path d="M97.0933 30.9952C93.7417 30.9952 91.01 33.5445 91.01 37.0557C91.01 40.5455 93.7417 43.1162 97.0933 43.1162C100.446 43.1162 103.178 40.5455 103.178 37.0557C103.177 33.5445 100.445 30.9952 97.0933 30.9952ZM97.0933 40.7308C95.2565 40.7308 93.6733 39.216 93.6733 37.0571C93.6733 34.8755 95.2579 33.3835 97.0933 33.3835C98.9302 33.3835 100.513 34.8755 100.513 37.0571C100.513 39.2146 98.9302 40.7308 97.0933 40.7308ZM83.8209 30.9952C80.4693 30.9952 77.7376 33.5445 77.7376 37.0557C77.7376 40.5455 80.4693 43.1162 83.8209 43.1162C87.1739 43.1162 89.9056 40.5455 89.9056 37.0557C89.9056 33.5445 87.1739 30.9952 83.8209 30.9952ZM83.8209 40.7308C81.984 40.7308 80.4009 39.216 80.4009 37.0571C80.4009 34.8755 81.9855 33.3835 83.8209 33.3835C85.6577 33.3835 87.2409 34.8755 87.2409 37.0571C87.2423 39.2146 85.6577 40.7308 83.8209 40.7308ZM68.0347 32.8562V35.4269H74.1879C74.0041 36.8733 73.5224 37.9292 72.7871 38.6631C71.8922 39.558 70.4914 40.5455 68.0347 40.5455C64.2471 40.5455 61.2859 37.4918 61.2859 33.7041C61.2859 29.9165 64.2471 26.8627 68.0347 26.8627C70.0782 26.8627 71.5702 27.6664 72.6717 28.6995L74.4857 26.8855C72.9467 25.4163 70.9047 24.292 68.0347 24.292C62.8463 24.292 58.4844 28.5157 58.4844 33.7041C58.4844 38.8925 62.8463 43.1162 68.0347 43.1162C70.8348 43.1162 72.9481 42.1971 74.5997 40.4757C76.2983 38.7771 76.827 36.3888 76.827 34.4608C76.827 33.8651 76.7814 33.3137 76.6888 32.8548H68.0347V32.8562ZM132.599 34.8527C132.094 33.4989 130.555 30.9952 127.41 30.9952C124.288 30.9952 121.693 33.4519 121.693 37.0557C121.693 40.4529 124.265 43.1162 127.708 43.1162C130.485 43.1162 132.093 41.4176 132.76 40.4301L130.693 39.0521C130.005 40.0625 129.063 40.7279 127.708 40.7279C126.354 40.7279 125.39 40.1081 124.77 38.8911L132.874 35.5395L132.599 34.8527ZM124.334 36.8733C124.265 34.5306 126.148 33.3379 127.503 33.3379C128.559 33.3379 129.454 33.8666 129.753 34.6232L124.334 36.8733ZM117.746 42.75H120.408V24.9361H117.746V42.75ZM113.383 32.3504H113.291C112.694 31.6379 111.546 30.9952 110.101 30.9952C107.07 30.9952 104.292 33.6585 104.292 37.0799C104.292 40.4771 107.07 43.1177 110.101 43.1177C111.547 43.1177 112.694 42.475 113.291 41.7411H113.383V42.6132C113.383 44.9317 112.143 46.1714 110.146 46.1714C108.516 46.1714 107.506 45.0015 107.093 44.014L104.774 44.9787C105.44 46.5847 107.207 48.5597 110.146 48.5597C113.268 48.5597 115.909 46.7229 115.909 42.2456V31.3643H113.384V32.3504H113.383ZM110.33 40.7308C108.493 40.7308 106.956 39.1918 106.956 37.0799C106.956 34.9439 108.493 33.3835 110.33 33.3835C112.143 33.3835 113.566 34.9439 113.566 37.0799C113.566 39.1918 112.143 40.7308 110.33 40.7308ZM145.073 24.9361H138.702V42.75H141.36V36.0012H145.072C148.019 36.0012 150.917 33.868 150.917 30.4694C150.917 27.0707 148.02 24.9361 145.073 24.9361ZM145.141 33.5217H141.36V27.4156H145.141C147.129 27.4156 148.258 29.0615 148.258 30.4694C148.258 31.8488 147.129 33.5217 145.141 33.5217ZM161.575 30.9638C159.649 30.9638 157.656 31.8117 156.831 33.6913L159.191 34.676C159.695 33.6913 160.635 33.3692 161.62 33.3692C162.995 33.3692 164.393 34.1943 164.416 35.6606V35.8445C163.934 35.5694 162.903 35.1576 161.643 35.1576C159.099 35.1576 156.509 36.5555 156.509 39.1676C156.509 41.5516 158.595 43.0863 160.932 43.0863C162.719 43.0863 163.705 42.284 164.323 41.3435H164.415V42.7187H166.982V35.8886C166.984 32.728 164.621 30.9638 161.575 30.9638ZM161.253 40.7265C160.383 40.7265 159.168 40.2905 159.168 39.2132C159.168 37.838 160.681 37.3108 161.988 37.3108C163.155 37.3108 163.706 37.563 164.416 37.9064C164.209 39.558 162.789 40.7265 161.253 40.7265ZM176.333 31.3529L173.285 39.0764H173.194L170.031 31.3529H167.166L171.91 42.1472L169.205 48.1522H171.978L179.29 31.3529H176.333ZM152.385 42.75H155.042V24.9361H152.385V42.75Z" fill="white"/>
<path d="M67.5698 14.5963C67.5698 15.7904 67.2164 16.7409 66.5082 17.4506C65.7045 18.2942 64.6557 18.716 63.3675 18.716C62.1335 18.716 61.0832 18.2885 60.2211 17.4335C59.3576 16.577 58.9258 15.5168 58.9258 14.2514C58.9258 12.9846 59.3576 11.9244 60.2211 11.0694C61.0832 10.213 62.1335 9.7855 63.3675 9.7855C63.9803 9.7855 64.5659 9.9052 65.1217 10.1432C65.6789 10.3826 66.1249 10.7003 66.4583 11.0979L65.7074 11.8503C65.1416 11.1734 64.3622 10.8357 63.3661 10.8357C62.4655 10.8357 61.6874 11.1521 61.0305 11.7848C60.3736 12.4175 60.0458 13.2397 60.0458 14.25C60.0458 15.2603 60.3736 16.0826 61.0305 16.7153C61.6874 17.348 62.4655 17.6643 63.3661 17.6643C64.3208 17.6643 65.1174 17.3465 65.7544 16.7096C66.1676 16.2949 66.407 15.7178 66.4712 14.9782H63.3661V13.9508H67.5086C67.5513 14.1745 67.5698 14.3897 67.5698 14.5963Z" fill="white"/>
<path d="M74.1392 11.0253H70.2461V13.7357H73.7573V14.7631H70.2461V17.4735H74.1392V18.5251H69.1474V9.9751H74.1392V11.0253Z" fill="white"/>
<path d="M78.7717 18.5251H77.6731V11.0253H75.2848V9.9751H81.16V11.0253H78.7717V18.5251Z" fill="white"/>
<path d="M85.4107 18.5251V9.9751H86.5094V18.5251H85.4107Z" fill="white"/>
<path d="M91.3817 18.5251H90.2831V11.0253H87.8947V9.9751H93.77V11.0253H91.3817V18.5251Z" fill="white"/>
<path d="M104.892 17.4207C104.051 18.2843 103.007 18.716 101.757 18.716C100.507 18.716 99.4626 18.2843 98.6233 17.4207C97.7825 16.5572 97.3635 15.4998 97.3635 14.2501C97.3635 13.0004 97.7825 11.943 98.6233 11.0795C99.4626 10.2159 100.507 9.78271 101.757 9.78271C102.999 9.78271 104.043 10.2173 104.886 11.0852C105.73 11.953 106.152 13.0075 106.152 14.2501C106.152 15.4998 105.731 16.5572 104.892 17.4207ZM99.4341 16.7039C100.067 17.3452 100.841 17.6644 101.757 17.6644C102.673 17.6644 103.448 17.3438 104.08 16.7039C104.712 16.0627 105.03 15.2447 105.03 14.2501C105.03 13.2554 104.712 12.4375 104.08 11.7962C103.448 11.155 102.673 10.8358 101.757 10.8358C100.841 10.8358 100.067 11.1564 99.4341 11.7962C98.8028 12.4375 98.485 13.2554 98.485 14.2501C98.485 15.2447 98.8028 16.0627 99.4341 16.7039Z" fill="white"/>
<path d="M107.693 18.5251V9.9751H109.03L113.185 16.6256H113.232L113.185 14.9783V9.9751H114.284V18.5251H113.137L108.789 11.5512H108.742L108.789 13.1985V18.5251H107.693Z" fill="white"/>
<path d="M67.5698 14.5963C67.5698 15.7904 67.2164 16.7409 66.5082 17.4506C65.7045 18.2942 64.6557 18.716 63.3675 18.716C62.1335 18.716 61.0832 18.2885 60.2211 17.4335C59.3576 16.577 58.9258 15.5168 58.9258 14.2514C58.9258 12.9846 59.3576 11.9244 60.2211 11.0694C61.0832 10.213 62.1335 9.7855 63.3675 9.7855C63.9803 9.7855 64.5659 9.9052 65.1217 10.1432C65.6789 10.3826 66.1249 10.7003 66.4583 11.0979L65.7074 11.8503C65.1416 11.1734 64.3622 10.8357 63.3661 10.8357C62.4655 10.8357 61.6874 11.1521 61.0305 11.7848C60.3736 12.4175 60.0458 13.2397 60.0458 14.25C60.0458 15.2603 60.3736 16.0826 61.0305 16.7153C61.6874 17.348 62.4655 17.6643 63.3661 17.6643C64.3208 17.6643 65.1174 17.3465 65.7544 16.7096C66.1676 16.2949 66.407 15.7178 66.4712 14.9782H63.3661V13.9508H67.5086C67.5513 14.1745 67.5698 14.3897 67.5698 14.5963Z" stroke="white" stroke-width="0.2" stroke-miterlimit="10"/>
<path d="M74.1392 11.0253H70.2461V13.7357H73.7573V14.7631H70.2461V17.4735H74.1392V18.5251H69.1474V9.9751H74.1392V11.0253Z" stroke="white" stroke-width="0.2" stroke-miterlimit="10"/>
<path d="M78.7717 18.5251H77.6731V11.0253H75.2848V9.9751H81.16V11.0253H78.7717V18.5251Z" stroke="white" stroke-width="0.2" stroke-miterlimit="10"/>
<path d="M85.4107 18.5251V9.9751H86.5094V18.5251H85.4107Z" stroke="white" stroke-width="0.2" stroke-miterlimit="10"/>
<path d="M91.3817 18.5251H90.2831V11.0253H87.8947V9.9751H93.77V11.0253H91.3817V18.5251Z" stroke="white" stroke-width="0.2" stroke-miterlimit="10"/>
<path d="M104.892 17.4207C104.051 18.2843 103.007 18.716 101.757 18.716C100.507 18.716 99.4626 18.2843 98.6233 17.4207C97.7825 16.5572 97.3635 15.4998 97.3635 14.2501C97.3635 13.0004 97.7825 11.943 98.6233 11.0795C99.4626 10.2159 100.507 9.78271 101.757 9.78271C102.999 9.78271 104.043 10.2173 104.886 11.0852C105.73 11.953 106.152 13.0075 106.152 14.2501C106.152 15.4998 105.731 16.5572 104.892 17.4207ZM99.4341 16.7039C100.067 17.3452 100.841 17.6644 101.757 17.6644C102.673 17.6644 103.448 17.3438 104.08 16.7039C104.712 16.0627 105.03 15.2447 105.03 14.2501C105.03 13.2554 104.712 12.4375 104.08 11.7962C103.448 11.155 102.673 10.8358 101.757 10.8358C100.841 10.8358 100.067 11.1564 99.4341 11.7962C98.8028 12.4375 98.485 13.2554 98.485 14.2501C98.485 15.2447 98.8028 16.0627 99.4341 16.7039Z" stroke="white" stroke-width="0.2" stroke-miterlimit="10"/>
<path d="M107.693 18.5251V9.9751H109.03L113.185 16.6256H113.232L113.185 14.9783V9.9751H114.284V18.5251H113.137L108.789 11.5512H108.742L108.789 13.1985V18.5251H107.693Z" stroke="white" stroke-width="0.2" stroke-miterlimit="10"/>
<g filter="url(#filter0_ii_56_2624)">
<path d="M14.8707 10.7417C14.456 11.1806 14.2109 11.8618 14.2109 12.7438V44.2591C14.2109 45.1426 14.456 45.8224 14.8707 46.2613L14.9762 46.3639L32.6305 28.7095V28.5015V28.2934L14.9762 10.6377L14.8707 10.7417Z" fill="url(#paint0_linear_56_2624)"/>
<path d="M38.5127 34.5962L32.6289 28.7096V28.5015V28.2935L38.5142 22.4082L38.6467 22.4837L45.6192 26.4452C47.6099 27.5767 47.6099 29.4278 45.6192 30.5606L38.6467 34.5221L38.5127 34.5962Z" fill="url(#paint1_linear_56_2624)"/>
<g filter="url(#filter1_i_56_2624)">
<path d="M38.6486 34.5207L32.6294 28.5015L14.8711 46.2612C15.5266 46.9566 16.611 47.0421 17.8322 46.3496L38.6486 34.5207Z" fill="url(#paint2_linear_56_2624)"/>
</g>
<path d="M38.6486 22.4822L17.8322 10.6547C16.611 9.96071 15.5266 10.0476 14.8711 10.743L32.6309 28.5028L38.6486 22.4822Z" fill="url(#paint3_linear_56_2624)"/>
</g>
<defs>
<filter id="filter0_ii_56_2624" x="14.2109" y="10.1758" width="32.9023" height="36.6523" filterUnits="userSpaceOnUse" color-interpolation-filters="sRGB">
<feFlood flood-opacity="0" result="BackgroundImageFix"/>
<feBlend mode="normal" in="SourceGraphic" in2="BackgroundImageFix" result="shape"/>
<feColorMatrix in="SourceAlpha" type="matrix" values="0 0 0 0 0 0 0 0 0 0 0 0 0 0 0 0 0 0 127 0" result="hardAlpha"/>
<feOffset dy="-0.15"/>
<feComposite in2="hardAlpha" operator="arithmetic" k2="-1" k3="1"/>
<feColorMatrix type="matrix" values="0 0 0 0 0 0 0 0 0 0 0 0 0 0 0 0 0 0 0.12 0"/>
<feBlend mode="normal" in2="shape" result="effect1_innerShadow_56_2624"/>
<feColorMatrix in="SourceAlpha" type="matrix" values="0 0 0 0 0 0 0 0 0 0 0 0 0 0 0 0 0 0 127 0" result="hardAlpha"/>
<feOffset dy="0.15"/>
<feComposite in2="hardAlpha" operator="arithmetic" k2="-1" k3="1"/>
<feColorMatrix type="matrix" values="0 0 0 0 1 0 0 0 0 1 0 0 0 0 1 0 0 0 0.25 0"/>
<feBlend mode="normal" in2="effect1_innerShadow_56_2624" result="effect2_innerShadow_56_2624"/>
</filter>
<filter id="filter1_i_56_2624" x="14.8711" y="28.5015" width="23.7773" height="18.3267" filterUnits="userSpaceOnUse" color-interpolation-filters="sRGB">
<feFlood flood-opacity="0" result="BackgroundImageFix"/>
<feBlend mode="normal" in="SourceGraphic" in2="BackgroundImageFix" result="shape"/>
<feColorMatrix in="SourceAlpha" type="matrix" values="0 0 0 0 0 0 0 0 0 0 0 0 0 0 0 0 0 0 127 0" result="hardAlpha"/>
<feOffset dy="-0.15"/>
<feComposite in2="hardAlpha" operator="arithmetic" k2="-1" k3="1"/>
<feColorMatrix type="matrix" values="0 0 0 0 0 0 0 0 0 0 0 0 0 0 0 0 0 0 0.08 0"/>
<feBlend mode="normal" in2="shape" result="effect1_innerShadow_56_2624"/>
</filter>
<linearGradient id="paint0_linear_56_2624" x1="31.0656" y1="12.4104" x2="7.1512" y2="36.3247" gradientUnits="userSpaceOnUse">
<stop stop-color="#00A0FF"/>
<stop offset="0.0066" stop-color="#00A1FF"/>
<stop offset="0.2601" stop-color="#00BEFF"/>
<stop offset="0.5122" stop-color="#00D2FF"/>
<stop offset="0.7604" stop-color="#00DFFF"/>
<stop offset="1" stop-color="#00E3FF"/>
</linearGradient>
<linearGradient id="paint1_linear_56_2624" x1="48.2106" y1="28.5015" x2="13.7314" y2="28.5015" gradientUnits="userSpaceOnUse">
<stop stop-color="#FFE000"/>
<stop offset="0.4087" stop-color="#FFBD00"/>
<stop offset="0.7754" stop-color="#FFA500"/>
<stop offset="1" stop-color="#FF9C00"/>
</linearGradient>
<linearGradient id="paint2_linear_56_2624" x1="35.3798" y1="31.7703" x2="2.94898" y2="64.2011" gradientUnits="userSpaceOnUse">
<stop stop-color="#FF3A44"/>
<stop offset="1" stop-color="#C31162"/>
</linearGradient>
<linearGradient id="paint3_linear_56_2624" x1="10.3986" y1="0.251904" x2="24.8799" y2="14.7332" gradientUnits="userSpaceOnUse">
<stop stop-color="#32A071"/>
<stop offset="0.0685" stop-color="#2DA771"/>
<stop offset="0.4762" stop-color="#15CF74"/>
<stop offset="0.8009" stop-color="#06E775"/>
<stop offset="1" stop-color="#00F076"/>
</linearGradient>
</defs>
</svg>
