<svg width="172" height="57" viewBox="0 0 172 57" fill="none" xmlns="http://www.w3.org/2000/svg">
<rect x="0.0234375" width="171" height="57" rx="7" fill="#0C0D10"/>
<path d="M116.197 27.3615V30.6262H114.151V32.7672H116.197V40.0418C116.197 42.5258 117.321 43.5194 120.148 43.5194C120.645 43.5194 121.118 43.4602 121.532 43.3893V41.272C121.177 41.3074 120.952 41.3311 120.562 41.3311C119.296 41.3311 118.74 40.7397 118.74 39.3912V32.7672H121.532V30.6262H118.74V27.3615H116.197Z" fill="white"/>
<path d="M128.733 43.6968C132.495 43.6968 134.801 41.1773 134.801 37.0018C134.801 32.85 132.483 30.3187 128.733 30.3187C124.972 30.3187 122.654 32.85 122.654 37.0018C122.654 41.1773 124.96 43.6968 128.733 43.6968ZM128.733 41.4376C126.521 41.4376 125.279 39.817 125.279 37.0018C125.279 34.2103 126.521 32.5779 128.733 32.5779C130.934 32.5779 132.187 34.2103 132.187 37.0018C132.187 39.8052 130.934 41.4376 128.733 41.4376Z" fill="white"/>
<path d="M136.775 43.4484H139.318V35.8426C139.318 34.0328 140.678 32.8145 142.606 32.8145C143.056 32.8145 143.813 32.8973 144.026 32.9683V30.4606C143.754 30.3896 143.269 30.3541 142.89 30.3541C141.211 30.3541 139.779 31.2768 139.413 32.5424H139.224V30.5671H136.775V43.4484Z" fill="white"/>
<path d="M150.341 32.4833C152.221 32.4833 153.451 33.7963 153.511 35.819H147.005C147.147 33.8081 148.46 32.4833 150.341 32.4833ZM153.499 39.9708C153.026 40.9762 151.973 41.5322 150.435 41.5322C148.401 41.5322 147.088 40.1009 147.005 37.8417V37.6997H156.101V36.8126C156.101 32.7672 153.936 30.3187 150.352 30.3187C146.721 30.3187 144.414 32.9328 144.414 37.0491C144.414 41.1655 146.674 43.6968 150.364 43.6968C153.309 43.6968 155.368 42.2774 155.947 39.9708H153.499Z" fill="white"/>
<path d="M99.5194 38.6915C99.7155 41.8546 102.351 43.8775 106.275 43.8775C110.468 43.8775 113.091 41.7565 113.091 38.3728C113.091 35.7124 111.595 34.2412 107.967 33.3952L106.017 32.9171C103.712 32.3776 102.781 31.6543 102.781 30.3915C102.781 28.7977 104.227 27.7556 106.397 27.7556C108.457 27.7556 109.879 28.7732 110.137 30.4038H112.809C112.65 27.4246 110.026 25.3281 106.434 25.3281C102.572 25.3281 99.9975 27.4246 99.9975 30.5754C99.9975 33.1745 101.456 34.7193 104.656 35.4672L106.937 36.0189C109.278 36.5706 110.308 37.3797 110.308 38.7283C110.308 40.2976 108.69 41.4378 106.483 41.4378C104.117 41.4378 102.474 40.3712 102.241 38.6915H99.5194Z" fill="white"/>
<path d="M73.1749 30.3541C71.4243 30.3541 69.9102 31.2295 69.1295 32.6962H68.9403V30.5671H66.4918V47.7304H69.0349V41.4967H69.236C69.9102 42.857 71.3651 43.6613 73.1986 43.6613C76.4514 43.6613 78.5215 41.0945 78.5215 37.0018C78.5215 32.9091 76.4514 30.3541 73.1749 30.3541ZM72.4534 41.3784C70.3242 41.3784 68.9876 39.6987 68.9876 37.0137C68.9876 34.3167 70.3242 32.6371 72.4652 32.6371C74.618 32.6371 75.9073 34.2812 75.9073 37.0018C75.9073 39.7342 74.618 41.3784 72.4534 41.3784Z" fill="white"/>
<path d="M87.4204 30.3541C85.6697 30.3541 84.1557 31.2295 83.375 32.6962H83.1857V30.5671H80.7372V47.7304H83.2803V41.4967H83.4814C84.1557 42.857 85.6106 43.6613 87.444 43.6613C90.6969 43.6613 92.7669 41.0945 92.7669 37.0018C92.7669 32.9091 90.6969 30.3541 87.4204 30.3541ZM86.6988 41.3784C84.5697 41.3784 83.233 39.6987 83.233 37.0137C83.233 34.3167 84.5697 32.6371 86.7106 32.6371C88.8634 32.6371 90.1528 34.2812 90.1528 37.0018C90.1528 39.7342 88.8634 41.3784 86.6988 41.3784Z" fill="white"/>
<path d="M61.9289 43.4484H64.8468L58.4593 25.7572H55.5047L49.1172 43.4484H51.937L53.5676 38.7528H60.3106L61.9289 43.4484ZM56.841 28.9693H57.0494L59.6118 36.448H54.2664L56.841 28.9693Z" fill="white"/>
<path d="M50.8281 12.4131V20.9474H53.9095C56.4526 20.9474 57.9253 19.3801 57.9253 16.6536C57.9253 13.9685 56.4408 12.4131 53.9095 12.4131H50.8281ZM52.1529 13.6196H53.7616C55.53 13.6196 56.5768 14.7433 56.5768 16.6714C56.5768 18.629 55.5477 19.7409 53.7616 19.7409H52.1529V13.6196Z" fill="white"/>
<path d="M62.4355 21.0716C64.3163 21.0716 65.4696 19.8119 65.4696 17.7241C65.4696 15.6482 64.3104 14.3825 62.4355 14.3825C60.5548 14.3825 59.3956 15.6482 59.3956 17.7241C59.3956 19.8119 60.5489 21.0716 62.4355 21.0716ZM62.4355 19.942C61.3296 19.942 60.7086 19.1317 60.7086 17.7241C60.7086 16.3284 61.3296 15.5122 62.4355 15.5122C63.5356 15.5122 64.1625 16.3284 64.1625 17.7241C64.1625 19.1258 63.5356 19.942 62.4355 19.942Z" fill="white"/>
<path d="M75.2909 14.5067H74.0193L72.8719 19.4215H72.7714L71.4466 14.5067H70.2282L68.9034 19.4215H68.8088L67.6555 14.5067H66.3662L68.1405 20.9474H69.4475L70.7724 16.2042H70.8729L72.2036 20.9474H73.5225L75.2909 14.5067Z" fill="white"/>
<path d="M76.7553 20.9474H78.0268V17.18C78.0268 16.1746 78.6242 15.5477 79.5646 15.5477C80.5049 15.5477 80.9544 16.0622 80.9544 17.0972V20.9474H82.226V16.7778C82.226 15.246 81.4335 14.3825 79.9963 14.3825C79.0264 14.3825 78.3876 14.8143 78.0742 15.5299H77.9795V14.5067H76.7553V20.9474Z" fill="white"/>
<path d="M84.2286 20.9474H85.5002V11.9932H84.2286V20.9474Z" fill="white"/>
<path d="M90.2825 21.0716C92.1632 21.0716 93.3165 19.8119 93.3165 17.7241C93.3165 15.6482 92.1573 14.3825 90.2825 14.3825C88.4017 14.3825 87.2425 15.6482 87.2425 17.7241C87.2425 19.8119 88.3958 21.0716 90.2825 21.0716ZM90.2825 19.942C89.1765 19.942 88.5555 19.1317 88.5555 17.7241C88.5555 16.3284 89.1765 15.5122 90.2825 15.5122C91.3825 15.5122 92.0094 16.3284 92.0094 17.7241C92.0094 19.1258 91.3825 19.942 90.2825 19.942Z" fill="white"/>
<path d="M97.1052 19.9834C96.4132 19.9834 95.9105 19.6463 95.9105 19.0667C95.9105 18.4989 96.3127 18.1973 97.1998 18.1381L98.773 18.0376V18.5758C98.773 19.3742 98.0633 19.9834 97.1052 19.9834ZM96.7799 21.0539C97.6257 21.0539 98.3295 20.6872 98.7139 20.0425H98.8144V20.9474H100.039V16.5472C100.039 15.1869 99.1279 14.3825 97.5133 14.3825C96.0525 14.3825 95.0115 15.0923 94.8814 16.1982H96.1116C96.2535 15.7428 96.7444 15.4826 97.4542 15.4826C98.3236 15.4826 98.773 15.867 98.773 16.5472V17.1031L97.0283 17.2037C95.4965 17.2983 94.633 17.9666 94.633 19.1258C94.633 20.3028 95.5379 21.0539 96.7799 21.0539Z" fill="white"/>
<path d="M104.354 21.0539C105.241 21.0539 105.992 20.634 106.376 19.9302H106.477V20.9474H107.695V11.9932H106.424V15.5299H106.329C105.98 14.8202 105.235 14.4003 104.354 14.4003C102.727 14.4003 101.681 15.6896 101.681 17.7241C101.681 19.7646 102.716 21.0539 104.354 21.0539ZM104.715 15.5417C105.779 15.5417 106.447 16.3875 106.447 17.73C106.447 19.0785 105.785 19.9124 104.715 19.9124C103.638 19.9124 102.993 19.0903 102.993 17.7241C102.993 16.3698 103.644 15.5417 104.715 15.5417Z" fill="white"/>
<path d="M115.941 21.0716C117.822 21.0716 118.975 19.8119 118.975 17.7241C118.975 15.6482 117.816 14.3825 115.941 14.3825C114.06 14.3825 112.901 15.6482 112.901 17.7241C112.901 19.8119 114.054 21.0716 115.941 21.0716ZM115.941 19.942C114.835 19.942 114.214 19.1317 114.214 17.7241C114.214 16.3284 114.835 15.5122 115.941 15.5122C117.041 15.5122 117.668 16.3284 117.668 17.7241C117.668 19.1258 117.041 19.942 115.941 19.942Z" fill="white"/>
<path d="M120.658 20.9474H121.93V17.18C121.93 16.1746 122.527 15.5477 123.468 15.5477C124.408 15.5477 124.858 16.0622 124.858 17.0972V20.9474H126.129V16.7778C126.129 15.246 125.337 14.3825 123.899 14.3825C122.929 14.3825 122.291 14.8143 121.977 15.5299H121.883V14.5067H120.658V20.9474Z" fill="white"/>
<path d="M131.985 12.904V14.5363H130.962V15.6068H131.985V19.2441C131.985 20.4861 132.547 20.9829 133.961 20.9829C134.209 20.9829 134.446 20.9533 134.653 20.9179V19.8592C134.475 19.8769 134.363 19.8888 134.168 19.8888C133.535 19.8888 133.257 19.593 133.257 18.9188V15.6068H134.653V14.5363H133.257V12.904H131.985Z" fill="white"/>
<path d="M136.36 20.9474H137.631V17.1859C137.631 16.2101 138.211 15.5536 139.252 15.5536C140.151 15.5536 140.63 16.074 140.63 17.1031V20.9474H141.901V16.7897C141.901 15.2579 141.056 14.3885 139.683 14.3885C138.714 14.3885 138.033 14.8202 137.72 15.5417H137.619V11.9932H136.36V20.9474Z" fill="white"/>
<path d="M146.488 15.4649C147.429 15.4649 148.044 16.1213 148.074 17.1327H144.821C144.892 16.1273 145.548 15.4649 146.488 15.4649ZM148.068 19.2086C147.831 19.7113 147.305 19.9893 146.536 19.9893C145.519 19.9893 144.862 19.2737 144.821 18.144V18.0731H149.369V17.6295C149.369 15.6068 148.286 14.3825 146.494 14.3825C144.679 14.3825 143.525 15.6896 143.525 17.7478C143.525 19.806 144.655 21.0716 146.5 21.0716C147.973 21.0716 149.002 20.3619 149.292 19.2086H148.068Z" fill="white"/>
<path d="M35.3205 28.9288C35.3514 26.5333 36.6378 24.2667 38.6786 23.0121C37.3912 21.1734 35.2348 20.0076 32.9912 19.9374C30.5983 19.6862 28.2785 21.3693 27.0591 21.3693C25.8161 21.3693 23.9387 19.9623 21.917 20.0039C19.2818 20.0891 16.8252 21.5873 15.5431 23.8911C12.7871 28.6626 14.8428 35.6751 17.4828 39.532C18.8036 41.4207 20.3473 43.5303 22.3672 43.4555C24.3437 43.3735 25.0819 42.1951 27.4678 42.1951C29.8315 42.1951 30.5241 43.4555 32.585 43.4079C34.7059 43.3735 36.0422 41.5109 37.3167 39.6044C38.2657 38.2587 38.996 36.7714 39.4805 35.1976C36.988 34.1434 35.3235 31.635 35.3205 28.9288Z" fill="white"/>
<path d="M31.4279 17.4009C32.5843 16.0126 33.1541 14.2283 33.0161 12.4268C31.2494 12.6123 29.6174 13.4567 28.4453 14.7917C27.2992 16.096 26.7028 17.849 26.8155 19.5817C28.5829 19.5999 30.3204 18.7784 31.4279 17.4009Z" fill="white"/>
</svg>
