<svg width="33" height="32" viewBox="0 0 33 32" fill="none" xmlns="http://www.w3.org/2000/svg">
<path d="M28.5043 26.3103L20.5113 18.3174C21.7517 16.7139 22.4226 14.7533 22.4226 12.6912C22.4226 10.2229 21.4593 7.90839 19.7173 6.1633C17.9752 4.41821 15.6546 3.45795 13.1893 3.45795C10.724 3.45795 8.40342 4.42128 6.6614 6.1633C4.91632 7.90531 3.95605 10.2229 3.95605 12.6912C3.95605 15.1565 4.91939 17.4771 6.6614 19.2191C8.40342 20.9642 10.721 21.9245 13.1893 21.9245C15.2514 21.9245 17.2089 21.2535 18.8124 20.0163L26.8053 28.0061C26.8288 28.0296 26.8566 28.0482 26.8872 28.0609C26.9179 28.0736 26.9507 28.0801 26.9838 28.0801C27.017 28.0801 27.0498 28.0736 27.0805 28.0609C27.1111 28.0482 27.1389 28.0296 27.1624 28.0061L28.5043 26.6673C28.5277 26.6439 28.5463 26.6161 28.559 26.5854C28.5717 26.5548 28.5782 26.522 28.5782 26.4888C28.5782 26.4557 28.5717 26.4228 28.559 26.3922C28.5463 26.3616 28.5277 26.3337 28.5043 26.3103V26.3103ZM18.0645 17.5664C16.7595 18.8683 15.0298 19.5854 13.1893 19.5854C11.3488 19.5854 9.61913 18.8683 8.31416 17.5664C7.01227 16.2614 6.29515 14.5317 6.29515 12.6912C6.29515 10.8507 7.01227 9.11794 8.31416 7.81605C9.61913 6.51416 11.3488 5.79704 13.1893 5.79704C15.0298 5.79704 16.7626 6.51108 18.0645 7.81605C19.3664 9.12102 20.0835 10.8507 20.0835 12.6912C20.0835 14.5317 19.3664 16.2645 18.0645 17.5664Z" fill="#BFBFBF"/>
</svg>
