<svg width="72" height="72" viewBox="0 0 72 72" fill="none" xmlns="http://www.w3.org/2000/svg">
<rect width="72" height="72" rx="20" fill="#262626"/>
<path fill-rule="evenodd" clip-rule="evenodd" d="M38.9599 22.9594C39.8802 22.0391 41.1795 21.6665 42.667 21.6665H45.3337C46.8211 21.6665 48.1204 22.0391 49.0408 22.9594C49.9611 23.8797 50.3337 25.179 50.3337 26.6665V29.3332C50.3337 30.8206 49.9611 32.1199 49.0408 33.0403C48.1204 33.9606 46.8211 34.3332 45.3337 34.3332H42.667C41.1795 34.3332 39.8802 33.9606 38.9599 33.0403C38.0395 32.1199 37.667 30.8206 37.667 29.3332V26.6665C37.667 25.179 38.0395 23.8797 38.9599 22.9594ZM40.3741 24.3736C39.9611 24.7866 39.667 25.4873 39.667 26.6665V29.3332C39.667 30.5124 39.9611 31.2131 40.3741 31.6261C40.7871 32.039 41.4878 32.3332 42.667 32.3332H45.3337C46.5128 32.3332 47.2136 32.039 47.6266 31.6261C48.0395 31.2131 48.3337 30.5124 48.3337 29.3332V26.6665C48.3337 25.4873 48.0395 24.7866 47.6266 24.3736C47.2136 23.9606 46.5128 23.6665 45.3337 23.6665H42.667C41.4878 23.6665 40.7871 23.9606 40.3741 24.3736Z" fill="#A4A4A4"/>
<path fill-rule="evenodd" clip-rule="evenodd" d="M22.9599 38.9594C23.8802 38.0391 25.1795 37.6665 26.667 37.6665H29.3337C30.8211 37.6665 32.1204 38.0391 33.0408 38.9594C33.9611 39.8797 34.3337 41.179 34.3337 42.6665V45.3332C34.3337 46.8206 33.9611 48.1199 33.0408 49.0403C32.1204 49.9606 30.8211 50.3332 29.3337 50.3332H26.667C25.1795 50.3332 23.8802 49.9606 22.9599 49.0403C22.0395 48.1199 21.667 46.8206 21.667 45.3332V42.6665C21.667 41.179 22.0395 39.8797 22.9599 38.9594ZM24.3741 40.3736C23.9611 40.7866 23.667 41.4873 23.667 42.6665V45.3332C23.667 46.5124 23.9611 47.2131 24.3741 47.6261C24.7871 48.0391 25.4878 48.3332 26.667 48.3332H29.3337C30.5128 48.3332 31.2136 48.0391 31.6266 47.6261C32.0395 47.2131 32.3337 46.5124 32.3337 45.3332V42.6665C32.3337 41.4873 32.0395 40.7866 31.6266 40.3736C31.2136 39.9606 30.5128 39.6665 29.3337 39.6665H26.667C25.4878 39.6665 24.7871 39.9606 24.3741 40.3736Z" fill="#A4A4A4"/>
<path fill-rule="evenodd" clip-rule="evenodd" d="M28.0003 23.6665C25.6071 23.6665 23.667 25.6066 23.667 27.9998C23.667 30.3931 25.6071 32.3332 28.0003 32.3332C30.3936 32.3332 32.3337 30.3931 32.3337 27.9998C32.3337 25.6066 30.3936 23.6665 28.0003 23.6665ZM21.667 27.9998C21.667 24.502 24.5025 21.6665 28.0003 21.6665C31.4981 21.6665 34.3337 24.502 34.3337 27.9998C34.3337 31.4976 31.4981 34.3332 28.0003 34.3332C24.5025 34.3332 21.667 31.4976 21.667 27.9998Z" fill="#A4A4A4"/>
<path fill-rule="evenodd" clip-rule="evenodd" d="M44.0003 39.6665C41.6071 39.6665 39.667 41.6066 39.667 43.9998C39.667 46.3931 41.6071 48.3332 44.0003 48.3332C46.3936 48.3332 48.3337 46.3931 48.3337 43.9998C48.3337 41.6066 46.3936 39.6665 44.0003 39.6665ZM37.667 43.9998C37.667 40.502 40.5025 37.6665 44.0003 37.6665C47.4981 37.6665 50.3337 40.502 50.3337 43.9998C50.3337 47.4976 47.4981 50.3332 44.0003 50.3332C40.5025 50.3332 37.667 47.4976 37.667 43.9998Z" fill="#A4A4A4"/>
</svg>
