<svg width="72" height="72" viewBox="0 0 72 72" fill="none" xmlns="http://www.w3.org/2000/svg">
<rect width="72" height="72" rx="20" fill="#262626"/>
<path fill-rule="evenodd" clip-rule="evenodd" d="M28.3463 31.3335C26.1386 31.3335 24.333 33.1391 24.333 35.3468V39.4478C25.0566 39.1595 25.8441 39.0002 26.6663 39.0002C30.1653 39.0002 32.9997 41.8345 32.9997 45.3335C32.9997 46.4104 32.7261 47.4384 32.2355 48.3335H43.653C45.8607 48.3335 47.6663 46.5279 47.6663 44.3202V43.7335H46.133C44.2536 43.7335 42.4294 42.3592 42.257 40.3291C42.1493 39.1795 42.587 38.1055 43.3454 37.3601C44.0276 36.6644 44.9628 36.2668 45.973 36.2668H47.6663V35.3468C47.6663 33.1391 45.8607 31.3335 43.653 31.3335H28.3463ZM22.333 35.3468C22.333 32.0346 25.034 29.3335 28.3463 29.3335H43.653C46.9653 29.3335 49.6663 32.0346 49.6663 35.3468V37.2668C49.6663 37.8191 49.2186 38.2668 48.6663 38.2668H45.973C45.4943 38.2668 45.0732 38.4525 44.7695 38.7644L44.7515 38.7824C44.3968 39.1287 44.1986 39.6217 44.2485 40.1453L44.2496 40.1571L44.2496 40.1571C44.3201 41.0037 45.1342 41.7335 46.133 41.7335H48.6663C49.2186 41.7335 49.6663 42.1812 49.6663 42.7335V44.3202C49.6663 47.6324 46.9653 50.3335 43.653 50.3335H30.173C29.7526 50.3335 29.377 50.0705 29.2333 49.6754C29.0895 49.2803 29.2083 48.8375 29.5304 48.5673C29.8543 48.2956 30.1399 47.958 30.3626 47.5763L30.3752 47.5553C30.7723 46.9112 30.9997 46.146 30.9997 45.3335C30.9997 42.9391 29.0607 41.0002 26.6663 41.0002C25.651 41.0002 24.7084 41.356 23.9563 41.9555C23.656 42.1949 23.2451 42.2411 22.899 42.0744C22.553 41.9077 22.333 41.5576 22.333 41.1735V35.3468Z" fill="#A4A4A4"/>
<path fill-rule="evenodd" clip-rule="evenodd" d="M38.7997 25.2669C38.7997 24.1902 37.7236 23.451 36.7274 23.8286L26.1402 27.8288C25.0512 28.2411 24.333 29.2808 24.333 30.4536V36.5468C24.333 37.0991 23.8853 37.5468 23.333 37.5468C22.7807 37.5468 22.333 37.0991 22.333 36.5468V30.4536C22.333 28.4531 23.5617 26.6661 25.4324 25.9582L36.0186 21.9584C38.3291 21.0827 40.7997 22.7969 40.7997 25.2669V30.3335C40.7997 30.8858 40.352 31.3335 39.7997 31.3335C39.2474 31.3335 38.7997 30.8858 38.7997 30.3335V25.2669Z" fill="#A4A4A4"/>
<path fill-rule="evenodd" clip-rule="evenodd" d="M45.9715 38.2671C45.4927 38.2671 45.0717 38.4527 44.7679 38.7647L44.75 38.7826C44.3953 39.1289 44.1971 39.622 44.247 40.1456L44.2481 40.1573L44.248 40.1574C44.3186 41.004 45.1327 41.7337 46.1315 41.7337H48.7218C48.9373 41.7198 49.0781 41.5513 49.0781 41.3738V38.627C49.0781 38.4495 48.9373 38.281 48.7218 38.2671H45.9715ZM43.3439 37.3604C44.026 36.6646 44.9613 36.2671 45.9715 36.2671H48.7448C48.7567 36.2671 48.7686 36.2673 48.7805 36.2677C50.0511 36.3131 51.0781 37.3413 51.0781 38.627V41.3738C51.0781 42.6595 50.0511 43.6877 48.7805 43.7331C48.7686 43.7335 48.7567 43.7337 48.7448 43.7337H46.1315C44.2521 43.7337 42.4279 42.3595 42.2554 40.3293C42.1478 39.1797 42.5855 38.1058 43.3439 37.3604Z" fill="#A4A4A4"/>
<path fill-rule="evenodd" clip-rule="evenodd" d="M28.333 36.0002C28.333 35.448 28.7807 35.0002 29.333 35.0002H38.6663C39.2186 35.0002 39.6663 35.448 39.6663 36.0002C39.6663 36.5525 39.2186 37.0002 38.6663 37.0002H29.333C28.7807 37.0002 28.333 36.5525 28.333 36.0002Z" fill="#A4A4A4"/>
<path fill-rule="evenodd" clip-rule="evenodd" d="M26.6663 41.0002C25.651 41.0002 24.7084 41.356 23.9563 41.9556L23.9546 41.9569L23.9546 41.9569C22.961 42.7453 22.333 43.9663 22.333 45.3336C22.333 46.1461 22.5604 46.9113 22.9575 47.5554L22.9659 47.569L22.9658 47.569C23.7122 48.8239 25.0852 49.6669 26.6663 49.6669C27.7633 49.6669 28.7523 49.2668 29.504 48.5903C29.5127 48.5825 29.5215 48.5749 29.5304 48.5674C29.8543 48.2957 30.1399 47.9581 30.3626 47.5764L30.3752 47.5554C30.7723 46.9113 30.9997 46.1461 30.9997 45.3336C30.9997 42.9392 29.0607 41.0002 26.6663 41.0002ZM22.7106 40.3909C23.7983 39.5242 25.1754 39.0002 26.6663 39.0002C30.1653 39.0002 32.9997 41.8346 32.9997 45.3336C32.9997 46.5168 32.6694 47.641 32.0839 48.5947C31.7505 49.1635 31.323 49.6715 30.8291 50.0885C29.7157 51.0848 28.2566 51.6669 26.6663 51.6669C24.3571 51.6669 22.3455 50.433 21.251 48.5983C20.6641 47.6438 20.333 46.5183 20.333 45.3336C20.333 43.3412 21.2513 41.5492 22.7106 40.3909Z" fill="#A4A4A4"/>
<path fill-rule="evenodd" clip-rule="evenodd" d="M29.482 43.3474C29.857 43.7528 29.8323 44.3855 29.4269 44.7605L26.5869 47.3871C26.1925 47.7518 25.5806 47.7399 25.2008 47.3601L23.8808 46.0401C23.4903 45.6496 23.4903 45.0164 23.8808 44.6259C24.2713 44.2354 24.9045 44.2354 25.295 44.6259L25.9349 45.2658L28.0689 43.2922C28.4744 42.9172 29.107 42.9419 29.482 43.3474Z" fill="#A4A4A4"/>
</svg>
